{
  "title": "Parched (2016) 720p WebRip x264 AAC 5.1 ESub -DDR",
  "uid": 15620048,
  "size": 1483832266,
  "categoryP": "video",
  "categoryS": "hd___movies",
  "magnet": "?xt=urn:btih:0bbe764e77535a757ba6a82d0f0c73810e609991&amp;dn=Parched+%282016%29+720p+WebRip+x264+AAC+5.1+ESub+-DDR&amp;tr=udp%3A%2F%2Ftracker.leechers-paradise.org%3A6969&amp;tr=udp%3A%2F%2Fzer0day.ch%3A1337&amp;tr=udp%3A%2F%2Fopen.demonii.com%3A1337&amp;tr=udp%3A%2F%2Ftracker.coppersurfer.tk%3A6969&amp;tr=udp%3A%2F%2Fexodus.desync.com%3A6969",
  "seeders": 188,
  "leechers": 214,
  "uploader": "SaM",
  "files": 3,
  "time": 1471871990,
  "description": "** PARCHED **\r\n\r\n** 2016**\r\n\r\n** 720p / WEBRip / x264 / AAC 5.1 **\r\n\r\n** English Hardcoded Subtitle(s) **\r\n\r\n** WARNING: Not recommended for under-aged children !!!\r\nContains explicit harsh language and sex sceens.\r\n**\r\n\r\n\r\n[ SCREENS ]\r\n \nhttp://extraimago.com/image/w1lQ \nhttp://extraimago.com/image/w1lL \nhttp://extraimago.com/image/w1ly \nhttp://extraimago.com/image/w1lq \nhttp://extraimago.com/image/w1lS \nhttp://extraimago.com/image/w1lO \nhttp://extraimago.com/image/w1lE \nhttp://extraimago.com/image/w1l1 \nhttp://extraimago.com/image/w1lc \nhttp://extraimago.com/image/w1l7 \nhttp://extraimago.com/image/w1ls \nhttp://extraimago.com/image/w1ln \nhttp://extraimago.com/image/w1lj \nhttp://extraimago.com/image/w1lT \nhttp://extraimago.com/image/w1lN \nhttp://extraimago.com/image/w1l2\r\n\r\n[ Info ]\r\nSource : Untouched WEBHD @ M2TV\r\n\r\nFormat : Matroska\r\nFile size : 1.36 GiB\r\nDuration : 1h 56mn\r\nOverall bit rate : 1 672 Kbps\r\n\r\nVideo\r\nFormat : AVC\r\nFormat/Info : Advanced Video Codec\r\nFormat profile :   \r\nFormat settings, CABAC : Yes\r\nFormat settings, ReFrames : 12 frames\r\nCodec ID : V_MPEG4/ISO/AVC\r\nDuration : 1h 56mn\r\nBit rate : 1 478 Kbps\r\nWidth : 1 280 pixels\r\nHeight : 534 pixels\r\nDisplay aspect ratio : 2.40:1\r\nFrame rate mode : Constant\r\nFrame rate : 23.976 (24000/1001) fps\r\ncolor space : YUV\r\nChroma subsampling : 4:2:0\r\nBit depth : 8 bits\r\nScan type : Progressive\r\nBits/(Pixel*Frame) : 0.090\r\nStream size : 1.21 GiB (88%)\r\n\r\nAudio\r\nFormat : AAC\r\nFormat/Info : Advanced Audio Codec\r\nFormat profile : LC\r\nCodec ID : A_AAC\r\nDuration : 1h 56mn\r\nBit rate : 192 Kbps\r\nChannel(s) : 6 channels\r\nChannel positions : Front: L C R, Side: L R, LFE\r\nSampling rate : 48.0 KHz\r\nFrame rate : 46.875 fps (1024 spf)\r\nCompression mode : Lossy\r\nDelay relative to video : 9ms\r\nStream size : 160 MiB (11%)\r\nDefault : Yes\r\nForced : No\r\n\r\n\r\nChapters = None on source\r\n\r\n[ A DDR Exclusive Encode !!! ]",
  "parsed": {
    "xt": "urn:btih:0bbe764e77535a757ba6a82d0f0c73810e609991",
    "dn": "Parched (2016) 720p WebRip x264 AAC 5.1 ESub -DDR",
    "tr": [
      "udp://exodus.desync.com:6969",
      "udp://open.demonii.com:1337",
      "udp://tracker.coppersurfer.tk:6969",
      "udp://tracker.leechers-paradise.org:6969",
      "udp://zer0day.ch:1337"
    ],
    "infoHash": "0bbe764e77535a757ba6a82d0f0c73810e609991",
    "infoHashBuffer": {
      "type": "Buffer",
      "data": [
        11,
        190,
        118,
        78,
        119,
        83,
        90,
        117,
        123,
        166,
        168,
        45,
        15,
        12,
        115,
        129,
        14,
        96,
        153,
        145
      ]
    },
    "name": "Parched (2016) 720p WebRip x264 AAC 5.1 ESub -DDR",
    "announce": [
      "udp://exodus.desync.com:6969",
      "udp://open.demonii.com:1337",
      "udp://tracker.coppersurfer.tk:6969",
      "udp://tracker.leechers-paradise.org:6969",
      "udp://zer0day.ch:1337"
    ],
    "urlList": []
  },
  "previous": 100,
  "peers": 222,
  "last_updated": "2016-12-26T15:55:49.910Z"
}